<svg width="224" height="185" viewBox="0 0 224 185" fill="none" xmlns="http://www.w3.org/2000/svg">
<path d="M178.764 76.5395C178.764 123.208 143.768 185 94.4034 185C45.0391 185 0 123.208 0 76.5395C0 29.8714 34.9962 13 84.3605 13C133.725 13 178.764 29.8714 178.764 76.5395Z" fill="#673DE6"/>
<path d="M86.3985 139.632C78.7092 139.632 71.8099 137.736 65.7005 133.944C59.5912 130.047 54.7459 124.833 51.1645 118.302C47.6885 111.666 45.9505 104.187 45.9505 95.866C45.9505 87.5447 47.8465 80.066 51.6385 73.43C55.5359 66.794 60.7499 61.58 67.2805 57.788C73.9165 53.8907 81.3425 51.942 89.5585 51.942C97.7745 51.942 105.148 53.8907 111.679 57.788C118.209 61.58 123.371 66.794 127.163 73.43C131.06 80.066 133.009 87.5447 133.009 95.866H126.847C126.847 104.187 125.056 111.666 121.475 118.302C117.999 124.833 113.206 130.047 107.097 133.944C100.987 137.736 94.0879 139.632 86.3985 139.632ZM89.5585 125.412C94.9305 125.412 99.7232 124.148 103.937 121.62C108.15 118.987 111.468 115.458 113.891 111.034C116.313 106.505 117.525 101.449 117.525 95.866C117.525 90.178 116.313 85.122 113.891 80.698C111.468 76.1687 108.15 72.64 103.937 70.112C99.7232 67.4787 94.9305 66.162 89.5585 66.162C84.2919 66.162 79.4992 67.4787 75.1805 70.112C70.9672 72.64 67.5965 76.1687 65.0685 80.698C62.6459 85.122 61.4345 90.178 61.4345 95.866C61.4345 101.449 62.6459 106.505 65.0685 111.034C67.5965 115.458 70.9672 118.987 75.1805 121.62C79.4992 124.148 84.2919 125.412 89.5585 125.412ZM124.951 139.158C122.633 139.158 120.685 138.421 119.105 136.946C117.63 135.366 116.893 133.417 116.893 131.1V106.926L119.895 90.178L133.009 95.866V131.1C133.009 133.417 132.219 135.366 130.639 136.946C129.164 138.421 127.268 139.158 124.951 139.158Z" fill="#F5F5F5"/>
</svg>
