<svg width="1319" height="185" viewBox="0 0 1319 185" fill="none" xmlns="http://www.w3.org/2000/svg">
<path d="M178.764 76.5395C178.764 123.208 143.768 185 94.4034 185C45.0391 185 0 123.208 0 76.5395C0 29.8714 34.9962 13 84.3605 13C133.725 13 178.764 29.8714 178.764 76.5395Z" fill="#673DE6"/>
<path d="M86.3985 139.632C78.7092 139.632 71.8099 137.736 65.7005 133.944C59.5912 130.047 54.7459 124.833 51.1645 118.302C47.6885 111.666 45.9505 104.187 45.9505 95.866C45.9505 87.5447 47.8465 80.066 51.6385 73.43C55.5359 66.794 60.7499 61.58 67.2805 57.788C73.9165 53.8907 81.3425 51.942 89.5585 51.942C97.7745 51.942 105.148 53.8907 111.679 57.788C118.209 61.58 123.371 66.794 127.163 73.43C131.06 80.066 133.009 87.5447 133.009 95.866H126.847C126.847 104.187 125.056 111.666 121.475 118.302C117.999 124.833 113.206 130.047 107.097 133.944C100.987 137.736 94.0879 139.632 86.3985 139.632ZM89.5585 125.412C94.9305 125.412 99.7232 124.148 103.937 121.62C108.15 118.987 111.468 115.458 113.891 111.034C116.313 106.505 117.525 101.449 117.525 95.866C117.525 90.178 116.313 85.122 113.891 80.698C111.468 76.1687 108.15 72.64 103.937 70.112C99.7232 67.4787 94.9305 66.162 89.5585 66.162C84.2919 66.162 79.4992 67.4787 75.1805 70.112C70.9672 72.64 67.5965 76.1687 65.0685 80.698C62.6459 85.122 61.4345 90.178 61.4345 95.866C61.4345 101.449 62.6459 106.505 65.0685 111.034C67.5965 115.458 70.9672 118.987 75.1805 121.62C79.4992 124.148 84.2919 125.412 89.5585 125.412ZM124.951 139.158C122.633 139.158 120.685 138.421 119.105 136.946C117.63 135.366 116.893 133.417 116.893 131.1V106.926L119.895 90.178L133.009 95.866V131.1C133.009 133.417 132.219 135.366 130.639 136.946C129.164 138.421 127.268 139.158 124.951 139.158Z" fill="#F5F5F5"/>
<path d="M235.98 136.44C230.627 136.44 225.823 135.12 221.57 132.48C217.317 129.767 213.943 126.137 211.45 121.59C209.03 116.97 207.82 111.763 207.82 105.97C207.82 100.177 209.14 94.97 211.78 90.35C214.493 85.73 218.123 82.1 222.67 79.46C227.29 76.7467 232.46 75.39 238.18 75.39C243.9 75.39 249.033 76.7467 253.58 79.46C258.127 82.1 261.72 85.73 264.36 90.35C267.073 94.97 268.43 100.177 268.43 105.97H264.14C264.14 111.763 262.893 116.97 260.4 121.59C257.98 126.137 254.643 129.767 250.39 132.48C246.137 135.12 241.333 136.44 235.98 136.44ZM238.18 126.54C241.92 126.54 245.257 125.66 248.19 123.9C251.123 122.067 253.433 119.61 255.12 116.53C256.807 113.377 257.65 109.857 257.65 105.97C257.65 102.01 256.807 98.49 255.12 95.41C253.433 92.2567 251.123 89.8 248.19 88.04C245.257 86.2067 241.92 85.29 238.18 85.29C234.513 85.29 231.177 86.2067 228.17 88.04C225.237 89.8 222.89 92.2567 221.13 95.41C219.443 98.49 218.6 102.01 218.6 105.97C218.6 109.857 219.443 113.377 221.13 116.53C222.89 119.61 225.237 122.067 228.17 123.9C231.177 125.66 234.513 126.54 238.18 126.54ZM262.82 136.11C261.207 136.11 259.85 135.597 258.75 134.57C257.723 133.47 257.21 132.113 257.21 130.5V113.67L259.3 102.01L268.43 105.97V130.5C268.43 132.113 267.88 133.47 266.78 134.57C265.753 135.597 264.433 136.11 262.82 136.11ZM291.619 136C290.225 136 288.979 135.487 287.879 134.46C286.779 133.433 286.229 132.077 286.229 130.39V76.16C286.229 70.88 287.255 66.2967 289.309 62.41C291.435 58.5233 294.369 55.5167 298.109 53.39C301.849 51.19 306.175 50.09 311.089 50.09C312.702 50.09 314.022 50.5667 315.049 51.52C316.149 52.4733 316.699 53.6833 316.699 55.15C316.699 56.5433 316.149 57.7533 315.049 58.78C314.022 59.7333 312.702 60.21 311.089 60.21C308.375 60.21 305.992 60.8333 303.939 62.08C301.885 63.3267 300.272 65.05 299.099 67.25C297.999 69.45 297.449 72.0533 297.449 75.06V130.39C297.449 132.077 296.935 133.433 295.909 134.46C294.882 135.487 293.452 136 291.619 136ZM281.499 87.49C279.959 87.49 278.712 87.05 277.759 86.17C276.805 85.29 276.329 84.19 276.329 82.87C276.329 81.4033 276.805 80.23 277.759 79.35C278.712 78.47 279.959 78.03 281.499 78.03H308.669C310.209 78.03 311.455 78.47 312.409 79.35C313.362 80.23 313.839 81.4033 313.839 82.87C313.839 84.19 313.362 85.29 312.409 86.17C311.455 87.05 310.209 87.49 308.669 87.49H281.499ZM331.989 136C330.595 136 329.349 135.487 328.249 134.46C327.149 133.433 326.599 132.077 326.599 130.39V76.16C326.599 70.88 327.625 66.2967 329.679 62.41C331.805 58.5233 334.739 55.5167 338.479 53.39C342.219 51.19 346.545 50.09 351.459 50.09C353.072 50.09 354.392 50.5667 355.419 51.52C356.519 52.4733 357.069 53.6833 357.069 55.15C357.069 56.5433 356.519 57.7533 355.419 58.78C354.392 59.7333 353.072 60.21 351.459 60.21C348.745 60.21 346.362 60.8333 344.309 62.08C342.255 63.3267 340.642 65.05 339.469 67.25C338.369 69.45 337.819 72.0533 337.819 75.06V130.39C337.819 132.077 337.305 133.433 336.279 134.46C335.252 135.487 333.822 136 331.989 136ZM321.869 87.49C320.329 87.49 319.082 87.05 318.129 86.17C317.175 85.29 316.699 84.19 316.699 82.87C316.699 81.4033 317.175 80.23 318.129 79.35C319.082 78.47 320.329 78.03 321.869 78.03H349.039C350.579 78.03 351.825 78.47 352.779 79.35C353.732 80.23 354.209 81.4033 354.209 82.87C354.209 84.19 353.732 85.29 352.779 86.17C351.825 87.05 350.579 87.49 349.039 87.49H321.869ZM372.579 136C370.965 136 369.609 135.487 368.509 134.46C367.482 133.36 366.969 132.003 366.969 130.39V81.44C366.969 79.7533 367.482 78.3967 368.509 77.37C369.609 76.3433 370.965 75.83 372.579 75.83C374.265 75.83 375.622 76.3433 376.649 77.37C377.675 78.3967 378.189 79.7533 378.189 81.44V130.39C378.189 132.003 377.675 133.36 376.649 134.46C375.622 135.487 374.265 136 372.579 136ZM372.579 66.04C370.599 66.04 368.875 65.3433 367.409 63.95C366.015 62.4833 365.319 60.76 365.319 58.78C365.319 56.8 366.015 55.1133 367.409 53.72C368.875 52.2533 370.599 51.52 372.579 51.52C374.559 51.52 376.245 52.2533 377.639 53.72C379.105 55.1133 379.839 56.8 379.839 58.78C379.839 60.76 379.105 62.4833 377.639 63.95C376.245 65.3433 374.559 66.04 372.579 66.04ZM404.493 98.38C404.493 93.98 405.556 90.0567 407.683 86.61C409.883 83.09 412.816 80.3033 416.483 78.25C420.15 76.1967 424.183 75.17 428.583 75.17C432.983 75.17 436.246 75.9033 438.373 77.37C440.573 78.7633 441.416 80.45 440.903 82.43C440.683 83.4567 440.243 84.2633 439.583 84.85C438.996 85.3633 438.3 85.6933 437.493 85.84C436.686 85.9867 435.806 85.95 434.853 85.73C430.16 84.7767 425.943 84.7033 422.203 85.51C418.463 86.3167 415.493 87.82 413.293 90.02C411.166 92.22 410.103 95.0067 410.103 98.38H404.493ZM404.603 136C402.843 136 401.486 135.56 400.533 134.68C399.58 133.727 399.103 132.333 399.103 130.5V81.33C399.103 79.57 399.58 78.2133 400.533 77.26C401.486 76.3067 402.843 75.83 404.603 75.83C406.436 75.83 407.793 76.3067 408.673 77.26C409.626 78.14 410.103 79.4967 410.103 81.33V130.5C410.103 132.26 409.626 133.617 408.673 134.57C407.793 135.523 406.436 136 404.603 136ZM531.579 136.11C529.966 136.11 528.609 135.597 527.509 134.57C526.483 133.47 525.969 132.113 525.969 130.5V99.04C525.969 94.42 524.833 91.01 522.559 88.81C520.286 86.5367 517.316 85.4 513.649 85.4C509.836 85.4 506.683 86.72 504.189 89.36C501.769 92 500.559 95.3733 500.559 99.48H491.429C491.429 94.7133 492.456 90.5333 494.509 86.94C496.563 83.2733 499.423 80.4133 503.089 78.36C506.829 76.3067 511.083 75.28 515.849 75.28C520.029 75.28 523.733 76.1967 526.959 78.03C530.186 79.8633 532.679 82.5767 534.439 86.17C536.273 89.69 537.189 93.98 537.189 99.04V130.5C537.189 132.113 536.676 133.47 535.649 134.57C534.623 135.597 533.266 136.11 531.579 136.11ZM458.209 136.11C456.596 136.11 455.239 135.597 454.139 134.57C453.113 133.47 452.599 132.113 452.599 130.5V81.55C452.599 79.8633 453.113 78.5067 454.139 77.48C455.239 76.4533 456.596 75.94 458.209 75.94C459.896 75.94 461.253 76.4533 462.279 77.48C463.306 78.5067 463.819 79.8633 463.819 81.55V130.5C463.819 132.113 463.306 133.47 462.279 134.57C461.253 135.597 459.896 136.11 458.209 136.11ZM494.949 136.11C493.336 136.11 491.979 135.597 490.879 134.57C489.853 133.47 489.339 132.113 489.339 130.5V99.04C489.339 94.42 488.203 91.01 485.929 88.81C483.656 86.5367 480.686 85.4 477.019 85.4C473.206 85.4 470.053 86.72 467.559 89.36C465.066 92 463.819 95.3733 463.819 99.48H456.889C456.889 94.7133 457.843 90.5333 459.749 86.94C461.656 83.2733 464.296 80.4133 467.669 78.36C471.043 76.3067 474.893 75.28 479.219 75.28C483.399 75.28 487.103 76.1967 490.329 78.03C493.556 79.8633 496.049 82.5767 497.809 86.17C499.643 89.69 500.559 93.98 500.559 99.04V130.5C500.559 132.113 500.046 133.47 499.019 134.57C497.993 135.597 496.636 136.11 494.949 136.11ZM580.912 136.44C575.558 136.44 570.755 135.12 566.502 132.48C562.248 129.767 558.875 126.137 556.382 121.59C553.962 116.97 552.752 111.763 552.752 105.97C552.752 100.177 554.072 94.97 556.712 90.35C559.425 85.73 563.055 82.1 567.602 79.46C572.222 76.7467 577.392 75.39 583.112 75.39C588.832 75.39 593.965 76.7467 598.512 79.46C603.058 82.1 606.652 85.73 609.292 90.35C612.005 94.97 613.362 100.177 613.362 105.97H609.072C609.072 111.763 607.825 116.97 605.332 121.59C602.912 126.137 599.575 129.767 595.322 132.48C591.068 135.12 586.265 136.44 580.912 136.44ZM583.112 126.54C586.852 126.54 590.188 125.66 593.122 123.9C596.055 122.067 598.365 119.61 600.052 116.53C601.738 113.377 602.582 109.857 602.582 105.97C602.582 102.01 601.738 98.49 600.052 95.41C598.365 92.2567 596.055 89.8 593.122 88.04C590.188 86.2067 586.852 85.29 583.112 85.29C579.445 85.29 576.108 86.2067 573.102 88.04C570.168 89.8 567.822 92.2567 566.062 95.41C564.375 98.49 563.532 102.01 563.532 105.97C563.532 109.857 564.375 113.377 566.062 116.53C567.822 119.61 570.168 122.067 573.102 123.9C576.108 125.66 579.445 126.54 583.112 126.54ZM607.752 136.11C606.138 136.11 604.782 135.597 603.682 134.57C602.655 133.47 602.142 132.113 602.142 130.5V113.67L604.232 102.01L613.362 105.97V130.5C613.362 132.113 612.812 133.47 611.712 134.57C610.685 135.597 609.365 136.11 607.752 136.11ZM651.95 136C648.283 136 644.983 135.083 642.05 133.25C639.117 131.343 636.807 128.777 635.12 125.55C633.433 122.323 632.59 118.693 632.59 114.66V62.19C632.59 60.5767 633.103 59.2567 634.13 58.23C635.157 57.2033 636.477 56.69 638.09 56.69C639.703 56.69 641.023 57.2033 642.05 58.23C643.077 59.2567 643.59 60.5767 643.59 62.19V114.66C643.59 117.593 644.397 120.05 646.01 122.03C647.623 124.01 649.603 125 651.95 125H655.69C657.01 125 658.11 125.513 658.99 126.54C659.943 127.567 660.42 128.887 660.42 130.5C660.42 132.113 659.797 133.433 658.55 134.46C657.377 135.487 655.837 136 653.93 136H651.95ZM627.53 87.49C625.99 87.49 624.743 87.05 623.79 86.17C622.837 85.29 622.36 84.19 622.36 82.87C622.36 81.4033 622.837 80.23 623.79 79.35C624.743 78.47 625.99 78.03 627.53 78.03H652.94C654.48 78.03 655.727 78.47 656.68 79.35C657.633 80.23 658.11 81.4033 658.11 82.87C658.11 84.19 657.633 85.29 656.68 86.17C655.727 87.05 654.48 87.49 652.94 87.49H627.53ZM680.921 136C679.307 136 677.951 135.487 676.851 134.46C675.824 133.36 675.311 132.003 675.311 130.39V81.44C675.311 79.7533 675.824 78.3967 676.851 77.37C677.951 76.3433 679.307 75.83 680.921 75.83C682.607 75.83 683.964 76.3433 684.991 77.37C686.017 78.3967 686.531 79.7533 686.531 81.44V130.39C686.531 132.003 686.017 133.36 684.991 134.46C683.964 135.487 682.607 136 680.921 136ZM680.921 66.04C678.941 66.04 677.217 65.3433 675.751 63.95C674.357 62.4833 673.661 60.76 673.661 58.78C673.661 56.8 674.357 55.1133 675.751 53.72C677.217 52.2533 678.941 51.52 680.921 51.52C682.901 51.52 684.587 52.2533 685.981 53.72C687.447 55.1133 688.181 56.8 688.181 58.78C688.181 60.76 687.447 62.4833 685.981 63.95C684.587 65.3433 682.901 66.04 680.921 66.04ZM734.684 136.44C728.744 136.44 723.501 135.157 718.954 132.59C714.407 129.95 710.814 126.357 708.174 121.81C705.607 117.19 704.324 111.91 704.324 105.97C704.324 99.9567 705.607 94.6767 708.174 90.13C710.814 85.51 714.407 81.9167 718.954 79.35C723.501 76.71 728.744 75.39 734.684 75.39C740.551 75.39 745.757 76.71 750.304 79.35C754.851 81.9167 758.407 85.51 760.974 90.13C763.614 94.6767 764.934 99.9567 764.934 105.97C764.934 111.91 763.651 117.19 761.084 121.81C758.517 126.357 754.961 129.95 750.414 132.59C745.867 135.157 740.624 136.44 734.684 136.44ZM734.684 126.54C738.497 126.54 741.871 125.66 744.804 123.9C747.737 122.14 750.011 119.72 751.624 116.64C753.311 113.56 754.154 110.003 754.154 105.97C754.154 101.937 753.311 98.38 751.624 95.3C750.011 92.1467 747.737 89.69 744.804 87.93C741.871 86.17 738.497 85.29 734.684 85.29C730.871 85.29 727.497 86.17 724.564 87.93C721.631 89.69 719.321 92.1467 717.634 95.3C715.947 98.38 715.104 101.937 715.104 105.97C715.104 110.003 715.947 113.56 717.634 116.64C719.321 119.72 721.631 122.14 724.564 123.9C727.497 125.66 730.871 126.54 734.684 126.54ZM832.452 136.11C830.839 136.11 829.482 135.597 828.382 134.57C827.356 133.47 826.842 132.113 826.842 130.5V103.44C826.842 99.26 826.072 95.85 824.532 93.21C822.992 90.57 820.902 88.6267 818.262 87.38C815.696 86.06 812.726 85.4 809.352 85.4C806.272 85.4 803.486 86.0233 800.992 87.27C798.499 88.5167 796.519 90.2033 795.052 92.33C793.586 94.3833 792.852 96.7667 792.852 99.48H785.922C785.922 94.86 787.022 90.7533 789.222 87.16C791.496 83.4933 794.576 80.5967 798.462 78.47C802.349 76.3433 806.712 75.28 811.552 75.28C816.612 75.28 821.122 76.38 825.082 78.58C829.116 80.7067 832.269 83.86 834.542 88.04C836.889 92.22 838.062 97.3533 838.062 103.44V130.5C838.062 132.113 837.512 133.47 836.412 134.57C835.386 135.597 834.066 136.11 832.452 136.11ZM787.242 136.11C785.629 136.11 784.272 135.597 783.172 134.57C782.146 133.47 781.632 132.113 781.632 130.5V81.44C781.632 79.7533 782.146 78.3967 783.172 77.37C784.272 76.3433 785.629 75.83 787.242 75.83C788.929 75.83 790.286 76.3433 791.312 77.37C792.339 78.3967 792.852 79.7533 792.852 81.44V130.5C792.852 132.113 792.339 133.47 791.312 134.57C790.286 135.597 788.929 136.11 787.242 136.11ZM916.119 136.44C910.253 136.44 905.009 135.12 900.389 132.48C895.843 129.767 892.249 126.137 889.609 121.59C887.043 116.97 885.759 111.763 885.759 105.97C885.759 100.03 887.043 94.75 889.609 90.13C892.176 85.51 895.696 81.9167 900.169 79.35C904.643 76.71 909.776 75.39 915.569 75.39C919.896 75.39 923.856 76.2333 927.449 77.92C931.043 79.5333 934.269 81.99 937.129 85.29C938.156 86.4633 938.523 87.6733 938.229 88.92C937.936 90.1667 937.129 91.2667 935.809 92.22C934.783 92.9533 933.646 93.21 932.399 92.99C931.153 92.6967 930.016 92.0367 928.989 91.01C925.396 87.1967 920.923 85.29 915.569 85.29C911.829 85.29 908.529 86.17 905.669 87.93C902.809 89.6167 900.573 92 898.959 95.08C897.346 98.16 896.539 101.79 896.539 105.97C896.539 109.93 897.346 113.45 898.959 116.53C900.646 119.61 902.956 122.067 905.889 123.9C908.823 125.66 912.233 126.54 916.119 126.54C918.686 126.54 920.923 126.247 922.829 125.66C924.809 125 926.606 124.01 928.219 122.69C929.393 121.737 930.603 121.223 931.849 121.15C933.096 121.003 934.196 121.333 935.149 122.14C936.396 123.167 937.093 124.34 937.239 125.66C937.386 126.907 936.946 128.043 935.919 129.07C930.639 133.983 924.039 136.44 916.119 136.44ZM979.984 136.44C974.631 136.44 969.827 135.12 965.574 132.48C961.321 129.767 957.947 126.137 955.454 121.59C953.034 116.97 951.824 111.763 951.824 105.97C951.824 100.177 953.144 94.97 955.784 90.35C958.497 85.73 962.127 82.1 966.674 79.46C971.294 76.7467 976.464 75.39 982.184 75.39C987.904 75.39 993.037 76.7467 997.584 79.46C1002.13 82.1 1005.72 85.73 1008.36 90.35C1011.08 94.97 1012.43 100.177 1012.43 105.97H1008.14C1008.14 111.763 1006.9 116.97 1004.4 121.59C1001.98 126.137 998.647 129.767 994.394 132.48C990.141 135.12 985.337 136.44 979.984 136.44ZM982.184 126.54C985.924 126.54 989.261 125.66 992.194 123.9C995.127 122.067 997.437 119.61 999.124 116.53C1000.81 113.377 1001.65 109.857 1001.65 105.97C1001.65 102.01 1000.81 98.49 999.124 95.41C997.437 92.2567 995.127 89.8 992.194 88.04C989.261 86.2067 985.924 85.29 982.184 85.29C978.517 85.29 975.181 86.2067 972.174 88.04C969.241 89.8 966.894 92.2567 965.134 95.41C963.447 98.49 962.604 102.01 962.604 105.97C962.604 109.857 963.447 113.377 965.134 116.53C966.894 119.61 969.241 122.067 972.174 123.9C975.181 125.66 978.517 126.54 982.184 126.54ZM1006.82 136.11C1005.21 136.11 1003.85 135.597 1002.75 134.57C1001.73 133.47 1001.21 132.113 1001.21 130.5V113.67L1003.3 102.01L1012.43 105.97V130.5C1012.43 132.113 1011.88 133.47 1010.78 134.57C1009.76 135.597 1008.44 136.11 1006.82 136.11ZM1034.52 98.38C1034.52 93.98 1035.59 90.0567 1037.71 86.61C1039.91 83.09 1042.85 80.3033 1046.51 78.25C1050.18 76.1967 1054.21 75.17 1058.61 75.17C1063.01 75.17 1066.28 75.9033 1068.4 77.37C1070.6 78.7633 1071.45 80.45 1070.93 82.43C1070.71 83.4567 1070.27 84.2633 1069.61 84.85C1069.03 85.3633 1068.33 85.6933 1067.52 85.84C1066.72 85.9867 1065.84 85.95 1064.88 85.73C1060.19 84.7767 1055.97 84.7033 1052.23 85.51C1048.49 86.3167 1045.52 87.82 1043.32 90.02C1041.2 92.22 1040.13 95.0067 1040.13 98.38H1034.52ZM1034.63 136C1032.87 136 1031.52 135.56 1030.56 134.68C1029.61 133.727 1029.13 132.333 1029.13 130.5V81.33C1029.13 79.57 1029.61 78.2133 1030.56 77.26C1031.52 76.3067 1032.87 75.83 1034.63 75.83C1036.47 75.83 1037.82 76.3067 1038.7 77.26C1039.66 78.14 1040.13 79.4967 1040.13 81.33V130.5C1040.13 132.26 1039.66 133.617 1038.7 134.57C1037.82 135.523 1036.47 136 1034.63 136ZM1105.5 136.44C1099.78 136.44 1094.61 135.12 1089.99 132.48C1085.45 129.767 1081.82 126.1 1079.1 121.48C1076.46 116.86 1075.14 111.653 1075.14 105.86C1075.14 100.067 1076.35 94.8967 1078.77 90.35C1081.27 85.73 1084.64 82.1 1088.89 79.46C1093.15 76.7467 1097.95 75.39 1103.3 75.39C1107.63 75.39 1111.63 76.3067 1115.29 78.14C1118.96 79.9 1122.04 82.32 1124.53 85.4V55.7C1124.53 54.0133 1125.05 52.6567 1126.07 51.63C1127.17 50.6033 1128.53 50.09 1130.14 50.09C1131.83 50.09 1133.19 50.6033 1134.21 51.63C1135.24 52.6567 1135.75 54.0133 1135.75 55.7V105.86C1135.75 111.653 1134.4 116.86 1131.68 121.48C1129.04 126.1 1125.45 129.767 1120.9 132.48C1116.36 135.12 1111.22 136.44 1105.5 136.44ZM1105.5 126.54C1109.24 126.54 1112.58 125.66 1115.51 123.9C1118.45 122.067 1120.76 119.573 1122.44 116.42C1124.13 113.267 1124.97 109.747 1124.97 105.86C1124.97 101.9 1124.13 98.38 1122.44 95.3C1120.76 92.22 1118.45 89.8 1115.51 88.04C1112.58 86.2067 1109.24 85.29 1105.5 85.29C1101.84 85.29 1098.5 86.2067 1095.49 88.04C1092.56 89.8 1090.21 92.22 1088.45 95.3C1086.77 98.38 1085.92 101.9 1085.92 105.86C1085.92 109.747 1086.77 113.267 1088.45 116.42C1090.21 119.573 1092.56 122.067 1095.49 123.9C1098.5 125.66 1101.84 126.54 1105.5 126.54ZM1177.46 136.44C1172.32 136.44 1167.56 135.67 1163.16 134.13C1158.83 132.517 1155.46 130.5 1153.04 128.08C1151.94 126.907 1151.46 125.587 1151.61 124.12C1151.83 122.58 1152.56 121.333 1153.81 120.38C1155.27 119.207 1156.7 118.73 1158.1 118.95C1159.56 119.097 1160.81 119.72 1161.84 120.82C1163.08 122.213 1165.06 123.533 1167.78 124.78C1170.56 125.953 1173.64 126.54 1177.02 126.54C1181.27 126.54 1184.5 125.843 1186.7 124.45C1188.97 123.057 1190.14 121.26 1190.22 119.06C1190.29 116.86 1189.23 114.953 1187.03 113.34C1184.9 111.727 1180.98 110.407 1175.26 109.38C1167.85 107.913 1162.46 105.713 1159.09 102.78C1155.79 99.8467 1154.14 96.2533 1154.14 92C1154.14 88.26 1155.24 85.18 1157.44 82.76C1159.64 80.2667 1162.46 78.4333 1165.91 77.26C1169.35 76.0133 1172.95 75.39 1176.69 75.39C1181.53 75.39 1185.82 76.16 1189.56 77.7C1193.3 79.24 1196.27 81.3667 1198.47 84.08C1199.49 85.2533 1199.97 86.5 1199.9 87.82C1199.82 89.0667 1199.2 90.13 1198.03 91.01C1196.85 91.8167 1195.46 92.0733 1193.85 91.78C1192.23 91.4867 1190.88 90.8267 1189.78 89.8C1187.94 88.04 1185.96 86.83 1183.84 86.17C1181.71 85.51 1179.25 85.18 1176.47 85.18C1173.24 85.18 1170.49 85.73 1168.22 86.83C1166.02 87.93 1164.92 89.5433 1164.92 91.67C1164.92 92.99 1165.25 94.2 1165.91 95.3C1166.64 96.3267 1168.03 97.28 1170.09 98.16C1172.14 98.9667 1175.15 99.7733 1179.11 100.58C1184.61 101.68 1188.93 103.073 1192.09 104.76C1195.31 106.447 1197.62 108.427 1199.02 110.7C1200.41 112.9 1201.11 115.467 1201.11 118.4C1201.11 121.773 1200.19 124.817 1198.36 127.53C1196.6 130.243 1193.96 132.407 1190.44 134.02C1186.99 135.633 1182.66 136.44 1177.46 136.44Z" fill="#3C0785"/>
</svg>
